<svg xmlns="http://www.w3.org/2000/svg" viewBox="0 0 256 256" role="img" aria-label="F1 Telemetry app icon">
  <defs>
    <linearGradient id="bg" x1="32" y1="20" x2="224" y2="236" gradientUnits="userSpaceOnUse">
      <stop offset="0" stop-color="#14243a"/>
      <stop offset="0.52" stop-color="#071220"/>
      <stop offset="1" stop-color="#030812"/>
    </linearGradient>
    <linearGradient id="blue" x1="44" y1="48" x2="216" y2="210" gradientUnits="userSpaceOnUse">
      <stop offset="0" stop-color="#52c8ff"/>
      <stop offset="1" stop-color="#1678ff"/>
    </linearGradient>
    <filter id="softShadow" x="-20%" y="-20%" width="140%" height="140%">
      <feDropShadow dx="0" dy="10" stdDeviation="12" flood-color="#000814" flood-opacity="0.55"/>
    </filter>
  </defs>
  <rect width="256" height="256" rx="44" fill="url(#bg)"/>
  <rect x="17" y="17" width="222" height="222" rx="36" fill="none" stroke="#263a55" stroke-width="2"/>
  <g filter="url(#softShadow)">
    <path d="M58 138a70 70 0 0 1 128 0" fill="none" stroke="url(#blue)" stroke-width="13" stroke-linecap="round"/>
    <path d="M66 154a58 58 0 1 0 112 0" fill="none" stroke="#1d4f91" stroke-width="10" stroke-linecap="round"/>
    <circle cx="122" cy="156" r="52" fill="none" stroke="#f7fbff" stroke-width="13"/>
    <circle cx="122" cy="156" r="16" fill="#091625" stroke="#f7fbff" stroke-width="8"/>
    <path d="M78 149c24-9 64-9 88 0" fill="none" stroke="#f7fbff" stroke-width="16" stroke-linecap="round"/>
    <path d="M112 169 96 210M132 169l16 41" fill="none" stroke="#f7fbff" stroke-width="14" stroke-linecap="round"/>
    <path d="M45 106 82 75l32 18 34-31 31 24 31-34" fill="none" stroke="url(#blue)" stroke-width="10" stroke-linecap="round" stroke-linejoin="round"/>
    <g fill="url(#blue)">
      <rect x="176" y="124" width="9" height="54" rx="4.5"/>
      <rect x="194" y="101" width="9" height="77" rx="4.5"/>
      <rect x="212" y="78" width="9" height="100" rx="4.5"/>
    </g>
    <g fill="#52c8ff">
      <circle cx="82" cy="75" r="8"/>
      <circle cx="114" cy="93" r="8"/>
      <circle cx="148" cy="62" r="8"/>
      <circle cx="179" cy="86" r="8"/>
      <circle cx="210" cy="52" r="7"/>
    </g>
  </g>
</svg>
